<svg width="360" height="384" viewBox="0 0 15 16" fill="none" xmlns="http://www.w3.org/2000/svg">
    <path class="shield-img" d="M0.678388 10.5143L0.669435 10.4978C0.513213 10.217 0.38349 9.8854 0.280873 9.51279C0.153767 9.05127 0.0734043 8.54784 0.0326814 8.0312C0.00465483 7.67562 -0.00142866 7.37124 0.00410266 7.104C0.0053739 7.0524 0.0053739 7.0524 0.00626082 6.99721L0.00626086 1.55901C0.00626087 1.01158 0.452573 0.565685 1 0.565685C3.82077 0.565685 5 0.571006 7.07863 0.571006C7.73726 0.570044 9.06665 0.570755 9.5 0.570755C10.3595 0.570755 11.3672 0.570755 11.5 0.570755C12.5 0.570755 12.937 0.568345 13.0502 0.565685C13.0659 0.565317 13.0977 0.565048 13.1408 0.564857C13.6964 0.562401 14.1498 1.01812 14.15 1.57368L14.1517 7.01891C14.1682 7.25884 14.1404 7.86856 14.0539 8.46333C13.9281 9.32783 13.6983 10.0999 13.3464 10.706C13.2287 10.9251 13.0823 11.1429 12.8733 11.4107C11.7306 12.9387 9.90685 14.245 7.42253 15.2846C7.1864 15.3835 6.9197 15.3832 6.68373 15.284C3.55818 13.9701 1.6347 12.3099 0.678388 10.5143Z" fill="#DDDEE0"/>
    <path class="shield-lines" d="M10.0518 7.4043H10.9912C11.1409 7.4043 11.2557 7.52069 11.2559 7.66309V9.24805C11.2558 9.39421 11.1372 9.5127 10.9912 9.5127H10.2656C9.86912 9.5127 9.51367 9.80309 9.51367 10.2363V10.9902C9.5136 11.1385 9.39598 11.2549 9.25195 11.2549H5.29688C5.15096 11.2547 5.0323 11.1363 5.03223 10.9902V10.0498C5.0324 9.90379 5.15102 9.78531 5.29688 9.78516H9.03613C9.45128 9.78503 9.78711 9.44834 9.78711 9.0332V7.66895C9.78733 7.52299 9.90596 7.40449 10.0518 7.4043Z" fill="#A1A3A7" stroke="#A1A3A7" stroke-width="0.487185"/>
    <path class="shield-lines" d="M5.09082 3.07422H9.04395C9.1899 3.07422 9.30837 3.1928 9.30859 3.33887V4.2793C9.30857 4.42554 9.19002 4.54395 9.04395 4.54395H5.30762C4.89246 4.54406 4.55566 4.88075 4.55566 5.2959L4.55664 6.65527C4.55633 6.80114 4.43869 6.91873 4.29297 6.91895H3.35254C3.19869 6.91881 3.08691 6.80443 3.08691 6.66602V5.08008C3.08691 4.93392 3.20561 4.81559 3.35156 4.81543H4.0752C4.49038 4.81534 4.82715 4.47864 4.82715 4.06348V3.33887C4.82737 3.19294 4.94506 3.07445 5.09082 3.07422Z" fill="#A1A3A7" stroke="#A1A3A7" stroke-width="0.487185"/>
    <path class="shield-lines" d="M6.72852 6.41602H7.63086C7.79038 6.41603 7.91992 6.54644 7.91992 6.70605V7.6084C7.91992 7.76809 7.7903 7.89842 7.63086 7.89844H6.72852C6.56898 7.89844 6.43848 7.76803 6.43848 7.6084V6.70605C6.43848 6.54635 6.56906 6.41602 6.72852 6.41602Z" fill="#A1A3A7" stroke="#A1A3A7" stroke-width="0.487185"/>
</svg>
