<svg width="53" height="29" viewBox="0 0 53 29" fill="none" xmlns="http://www.w3.org/2000/svg">
<path d="M52.5 19.1668C52.5 20.4555 51.4418 21.5001 50.1364 21.5001C48.831 21.5001 47.7727 20.4555 47.7727 19.1668V8.4662L33.21 22.8445C32.7696 23.2793 32.3395 23.7054 31.9474 24.034C31.5341 24.3803 31.0095 24.7532 30.3247 24.9728C29.3752 25.2773 28.3519 25.2773 27.4024 24.9728C26.7177 24.7532 26.193 24.3803 25.7797 24.034C25.3876 23.7054 24.9575 23.2793 24.5171 22.8445L18.0471 16.4575C17.5515 15.9682 17.2792 15.6998 17.0684 15.5232C17.0605 15.5166 17.0525 15.5109 17.0453 15.505C17.0382 15.5109 17.0302 15.5166 17.0223 15.5232C16.8115 15.6998 16.5391 15.9682 16.0436 16.4575L4.53464 27.8166C3.61158 28.7278 2.11536 28.7278 1.1923 27.8166C0.269235 26.9053 0.269235 25.4283 1.1923 24.5171L12.6989 13.1557C13.1393 12.7209 13.5694 12.2949 13.9615 11.9662C14.3748 11.6199 14.8994 11.2471 15.5842 11.0274C16.4149 10.761 17.3017 10.7297 18.1464 10.9294L18.5065 11.0274L18.9912 11.2188C19.4467 11.4324 19.8193 11.7066 20.1292 11.9662C20.5213 12.2949 20.9514 12.7209 21.3918 13.1557L27.8618 19.5428C28.3573 20.032 28.6297 20.3004 28.8405 20.477C28.848 20.4833 28.8567 20.4873 28.8636 20.493C28.8704 20.4873 28.8791 20.4833 28.8866 20.477C29.0974 20.3004 29.3698 20.032 29.8653 19.5428L44.4304 5.1667H33.5908C32.2854 5.1667 31.2272 4.12202 31.2272 2.83335C31.2272 1.54468 32.2854 0.5 33.5908 0.5H50.1364C51.4418 0.5 52.5 1.54468 52.5 2.83335V19.1668Z" stroke="url(#paint0_linear_earn)" stroke-linecap="round" stroke-linejoin="round"/>
<defs>
<linearGradient id="paint0_linear_earn" x1="5.21177" y1="14.5" x2="52.5" y2="14.5" gradientUnits="userSpaceOnUse">
<stop stop-color="#00B460"/>
<stop offset="0.475962" stop-color="#08763B"/>
<stop offset="1" stop-color="#237E4D"/>
</linearGradient>
</defs>
</svg>
