<svg width="16" height="16" viewBox="0 0 16 16" fill="none" xmlns="http://www.w3.org/2000/svg">
    <path fill-rule="evenodd" clip-rule="evenodd" d="M7.99967 13.334C6.76901 13.334 5.63834 12.9107 4.73501 12.2087L12.2077 4.73598C12.9103 5.63865 13.333 6.76998 13.333 8.00065C13.333 10.9413 10.9403 13.334 7.99967 13.334ZM2.66634 8.00065C2.66634 5.05998 5.05901 2.66732 7.99967 2.66732C9.23034 2.66732 10.361 3.09065 11.2643 3.79265L3.79167 11.2653C3.08901 10.3627 2.66634 9.23132 2.66634 8.00065ZM7.99967 1.33398C4.32367 1.33398 1.33301 4.32465 1.33301 8.00065C1.33301 11.6767 4.32367 14.6673 7.99967 14.6673C11.6757 14.6673 14.6663 11.6767 14.6663 8.00065C14.6663 4.32465 11.6757 1.33398 7.99967 1.33398Z" fill="currentColor"/>
</svg>
