<svg width="16" height="16" viewBox="0 0 16 16" fill="currentColor" xmlns="http://www.w3.org/2000/svg">
<path fill-rule="evenodd" clip-rule="evenodd" d="M6.6025 11.3327C6.47836 11.3327 6.35981 11.2827 6.27254 11.1932L3.4728 8.33464C3.29032 8.14845 3.29032 7.84703 3.4728 7.66132C3.65528 7.47513 3.95023 7.47513 4.13271 7.66132L6.6025 10.1832L11.8725 4.80566C12.055 4.61947 12.3499 4.61947 12.5324 4.80566C12.7149 4.99184 12.7149 5.29279 12.5324 5.47898L6.93246 11.1932C6.84518 11.2827 6.72664 11.3327 6.6025 11.3327Z"/>
<path fill-rule="evenodd" clip-rule="evenodd" d="M12.2917 5.04028C12.24 4.98744 12.1597 4.98744 12.108 5.04028L6.59982 10.6608L3.89205 7.89594C3.84026 7.84311 3.76004 7.84311 3.70825 7.89594C3.65337 7.9518 3.65264 8.04588 3.70825 8.10262L6.50862 10.9618C6.53341 10.9872 6.56599 11.0007 6.5999 11.0007C6.6338 11.0007 6.66639 10.9872 6.69117 10.9618L6.69178 10.9612L12.2917 5.24697C12.3472 5.19039 12.3472 5.09685 12.2917 5.04028ZM11.6318 4.57364C11.945 4.2541 12.4547 4.2541 12.7679 4.57364C13.0774 4.88944 13.0774 5.3978 12.7679 5.7136L7.16853 11.4271C7.16837 11.4273 7.16821 11.4275 7.16805 11.4276C7.01834 11.581 6.81404 11.6673 6.5999 11.6673C6.38578 11.6673 6.18151 11.581 6.0318 11.4277C6.03179 11.4277 6.03181 11.4277 6.0318 11.4277C6.03163 11.4275 6.03143 11.4273 6.03126 11.4271L3.23213 8.56926C2.92282 8.25367 2.92236 7.74468 3.23233 7.42911C3.54552 7.10976 4.05506 7.10983 4.36817 7.4293L6.59997 9.70816L11.6318 4.57364Z"/>
</svg>
