<svg width="16" height="16" viewBox="0 0 16 16" fill="none" xmlns="http://www.w3.org/2000/svg">
<path fill-rule="evenodd" clip-rule="evenodd" d="M11.9993 12.6643C11.9993 13.0323 11.7007 13.331 11.3327 13.331H4.66602C4.29802 13.331 3.99935 13.0323 3.99935 12.6643V7.99767C3.99935 7.62967 4.29802 7.33101 4.66602 7.33101H11.3327C11.7007 7.33101 11.9993 7.62967 11.9993 7.99767V12.6643ZM8.00202 2.66634C9.47268 2.66634 10.6687 3.86301 10.6687 5.33367V5.99767H5.33535V5.33367C5.33535 3.86301 6.53135 2.66634 8.00202 2.66634V2.66634ZM12.002 6.12167V5.33367C12.002 3.12767 10.2073 1.33301 8.00202 1.33301C5.79602 1.33301 4.00202 3.12767 4.00202 5.33367V6.11967C3.22602 6.39501 2.66602 7.12834 2.66602 7.99767V12.6643C2.66602 13.767 3.56335 14.6643 4.66602 14.6643H11.3327C12.4353 14.6643 13.3327 13.767 13.3327 12.6643V7.99767C13.3327 7.13034 12.7747 6.39834 12.002 6.12167V6.12167Z" fill="currentColor"/>
<path fill-rule="evenodd" clip-rule="evenodd" d="M9 9.66211C9 9.10944 8.552 8.66211 8 8.66211C7.448 8.66211 7 9.10944 7 9.66211C7 9.95744 7.13 10.2201 7.33467 10.4028V11.3261C7.33467 11.6954 7.634 11.9948 8.00333 11.9948C8.37333 11.9948 8.67267 11.6954 8.67267 11.3261V10.3981C8.87267 10.2148 9 9.95411 9 9.66211" fill="currentColor"/>
</svg>
