<svg width="250" height="35" viewBox="90 0 280 65" fill="none" xmlns="http://www.w3.org/2000/svg">
<g transform="scale(1.8)">
<g filter="url(#filter0_d_14760_8283)">
<path d="M17.1043 13.601H15.1837C14.61 13.601 14.1452 14.0513 14.1452 14.6071V17.3082C14.1452 17.864 13.6804 18.3143 13.1068 18.3143H5.4657C4.89206 18.3143 4.42725 18.7647 4.42725 19.3205V21.1815C4.42725 21.7373 4.89206 22.1876 5.4657 22.1876H13.549C14.1227 22.1876 14.5809 21.7373 14.5809 21.1815V19.6884C14.5809 19.1326 15.0457 18.7383 15.6193 18.7383H17.1039C17.6776 18.7383 18.1424 18.288 18.1424 17.7322V14.5954C18.1424 14.0396 17.6776 13.601 17.1039 13.601H17.1043Z" fill="currentColor"/>
<path d="M4.42676 9.90325C4.42676 9.34745 4.89158 8.89709 5.46521 8.89709H13.1016C13.6753 8.89709 14.1401 8.44672 14.1401 7.89092V6.02997C14.1401 5.47417 13.6753 5.0238 13.1016 5.0238H5.02255C4.44892 5.0238 3.9841 5.47417 3.9841 6.02997V7.4639C3.9841 8.0197 3.51929 8.47007 2.94565 8.47007H1.46765C0.894014 8.47007 0.429199 8.92043 0.429199 9.47623V12.6164C0.429199 13.1722 0.895958 13.5999 1.46959 13.5999H3.39026C3.96389 13.5999 4.42871 13.1496 4.42871 12.5938L4.42676 9.90363V9.90325Z" fill="currentColor"/>
<path d="M8.38194 11.6442H10.2268C10.828 11.6442 11.3158 12.1171 11.3158 12.6993V14.4868C11.3158 15.0693 10.8277 15.5419 10.2268 15.5419H8.38194C7.78071 15.5419 7.29297 15.069 7.29297 14.4868V12.6993C7.29297 12.1167 7.7811 11.6442 8.38194 11.6442V11.6442Z" fill="currentColor"/>
</g>
<path d="M34.4206 13.0142C33.7363 12.7309 32.9006 12.4948 31.9134 12.3054H31.8924C30.9333 12.1311 30.2138 11.9711 29.7343 11.8253C29.2547 11.6805 28.8776 11.4841 28.6023 11.2368C28.3271 10.9898 28.1899 10.6482 28.1899 10.2118C28.1899 9.57221 28.4228 9.08525 28.8881 8.75096C29.3537 8.41666 29.9671 8.2493 30.7286 8.2493C31.561 8.2493 32.2339 8.46726 32.7491 8.90362C33.2115 9.29543 33.4946 9.7932 33.5987 10.3961C33.6192 10.5163 33.7178 10.6049 33.8362 10.6062L36.1772 10.6244C36.3207 10.6257 36.4356 10.4985 36.4214 10.3511C36.3429 9.54453 36.0849 8.81107 35.6477 8.15113C35.1611 7.41724 34.4911 6.84639 33.6377 6.43901C32.7844 6.03206 31.8148 5.82837 30.7286 5.82837C29.699 5.82837 28.7718 6.02471 27.9466 6.41739C27.1218 6.81006 26.4799 7.35497 26.0213 8.05296C25.5627 8.75096 25.3337 9.53588 25.3337 10.4082C25.3337 11.3678 25.538 12.1384 25.947 12.7197C26.3561 13.3013 26.8919 13.7412 27.5547 14.0391C28.2176 14.3371 29.0143 14.5732 29.9453 14.7479L30.051 14.7696C31.0378 14.9585 31.7754 15.1259 32.262 15.2712C32.7487 15.417 33.1326 15.6202 33.4149 15.8819C33.6969 16.1435 33.8378 16.4998 33.8378 16.9505C33.8378 17.5905 33.584 18.0917 33.0764 18.455C32.5687 18.8187 31.9125 19.0004 31.1087 19.0004C30.1492 19.0004 29.3739 18.7495 28.7815 18.2479C28.2424 17.7916 27.9252 17.2056 27.83 16.4903C27.8136 16.3666 27.7137 16.2728 27.5929 16.2711L25.2548 16.2347C25.1126 16.2326 24.9976 16.3563 25.0085 16.5024C25.0748 17.3821 25.3416 18.1748 25.809 18.8806C26.3238 19.6586 27.0324 20.2692 27.9353 20.7125C28.8377 21.1562 29.8744 21.3776 31.0453 21.3776C32.1311 21.3776 33.1045 21.1743 33.965 20.767C34.825 20.36 35.4988 19.7965 35.9855 19.0769C36.4721 18.3573 36.7155 17.5468 36.7155 16.6452C36.7155 15.6855 36.5036 14.9114 36.0807 14.3224C35.6578 13.7338 35.104 13.2975 34.4202 13.0138L34.4206 13.0142Z" fill="currentColor"/>
<path d="M48.7984 18.8912H48.4329C48.2215 18.8912 48.0554 18.8333 47.9358 18.7165C47.8158 18.6006 47.7558 18.4112 47.7558 18.1496V13.9841C47.7558 12.6612 47.3467 11.6544 46.5291 10.9637C45.7109 10.2735 44.7477 9.92151 43.2386 9.92151C41.8138 9.92151 40.7008 10.2407 39.8264 10.8656C39.0293 11.4356 38.5489 12.2162 38.3844 13.2087C38.3589 13.3631 38.4721 13.5045 38.6236 13.5045H40.7738C40.8816 13.5045 40.9781 13.4314 41.0066 13.3241C41.1048 12.957 41.3213 12.6573 41.6561 12.425C42.0437 12.156 42.5044 12.0216 43.111 12.0216C44.2551 12.0216 45.0686 12.7485 45.0686 13.8314V14.17C45.0686 14.3084 44.96 14.4204 44.8257 14.4204H42.8782C41.2986 14.4204 40.0995 14.7405 39.2819 15.3801C38.4637 16.0201 38.0547 16.9287 38.0547 18.1059C38.0547 19.1239 38.4285 19.9235 39.1761 20.5048C39.7371 20.9407 40.4075 21.1924 41.0976 21.3027C41.625 21.387 42.1666 21.4177 42.6953 21.3303C43.2491 21.2391 43.6988 21.0038 44.149 20.6682C44.5534 20.3672 44.8907 19.9815 45.1987 19.511C45.3489 19.245 45.7428 19.3518 45.7428 19.6593V20.0291C45.7424 20.7011 46.2706 21.246 46.9226 21.246H48.7984C48.9326 21.246 49.0413 21.134 49.0413 20.9956V19.1412C49.0413 19.0028 48.9326 18.8908 48.7984 18.8908V18.8912ZM45.069 16.645C45.069 17.183 44.9595 17.6518 44.741 18.0514C44.2828 18.8895 43.463 19.3272 42.5404 19.3272C42.0043 19.3272 41.5742 19.1966 41.2499 18.9349C40.9252 18.6733 40.7633 18.3243 40.7633 17.8879C40.7633 17.3941 40.9432 17.0122 41.3028 16.7432C41.6623 16.4746 42.1734 16.3397 42.8366 16.3397H44.8261C44.9604 16.3397 45.069 16.4517 45.069 16.5901V16.645V16.645Z" fill="currentColor"/>
<path d="M56.6354 5.98669H53.8375C52.3615 5.98669 51.165 7.22008 51.165 8.74149V9.95196C51.165 10.0903 51.0563 10.2024 50.9221 10.2024H49.3245C49.1902 10.2024 49.0815 10.3144 49.0815 10.4527V12.3288C49.0815 12.4672 49.1902 12.5792 49.3245 12.5792H50.9221C51.0563 12.5792 51.165 12.6912 51.165 12.8296V20.9954C51.165 21.1337 51.2737 21.2457 51.4079 21.2457H53.5879C53.7221 21.2457 53.8308 21.1337 53.8308 20.9954V12.8296C53.8308 12.6912 53.9394 12.5792 54.0737 12.5792H56.614C56.7483 12.5792 56.857 12.4672 56.857 12.3288V10.4527C56.857 10.3144 56.7483 10.2024 56.614 10.2024H54.0737C53.9394 10.2024 53.8308 10.0903 53.8308 9.95196V8.86431C53.8308 8.58753 54.0485 8.36352 54.3166 8.36352H56.635C56.7693 8.36352 56.8779 8.25151 56.8779 8.11312V6.23709C56.8779 6.0987 56.7693 5.98669 56.635 5.98669H56.6354Z" fill="currentColor"/>
<path d="M67.3159 12.4586C66.8435 11.6447 66.1979 11.0193 65.3802 10.583C64.5621 10.1471 63.6168 9.92261 62.5453 9.92261C61.4738 9.92261 60.5491 10.1652 59.7314 10.6375C58.9133 11.1102 58.2785 11.7787 57.8275 12.6437C57.3761 13.509 57.1504 14.5227 57.1504 15.6861C57.1504 16.8494 57.3832 17.8198 57.8485 18.6848C58.3142 19.5497 58.9804 20.2148 59.8476 20.6801C60.7148 21.1455 61.7339 21.3781 62.9049 21.3781C63.8073 21.3781 64.6149 21.2073 65.3273 20.8657C66.0393 20.5245 66.614 20.0552 67.0512 19.4593C67.4254 18.949 67.6809 18.3902 67.8177 17.7835C67.8534 17.6261 67.738 17.4747 67.5811 17.4747H65.3911C65.2862 17.4747 65.1943 17.5448 65.1607 17.6473C65.0064 18.1174 64.7341 18.4889 64.3435 18.7613C63.9059 19.0666 63.363 19.2193 62.7144 19.2193C62.1782 19.2193 61.7096 19.1029 61.3077 18.8703C60.9057 18.6381 60.5886 18.3107 60.3557 17.889C60.2638 17.7225 60.1887 17.5465 60.1287 17.3653C60.0645 17.1707 60.0184 16.97 59.9865 16.7668C59.9756 16.6959 59.9655 16.6241 59.9571 16.5523C59.9408 16.4044 60.0545 16.2751 60.1988 16.2751H67.751C67.8735 16.2751 67.9784 16.1817 67.9922 16.0558C68.0027 15.9637 68.0099 15.8699 68.0136 15.7734C68.0208 15.5991 68.0241 15.4391 68.0241 15.2938C68.0241 14.2183 67.7879 13.2733 67.3155 12.459L67.3159 12.4586ZM65.0466 14.3774H60.3167C60.1615 14.3774 60.0444 14.2291 60.0788 14.073C60.1543 13.7309 60.2852 13.4221 60.4715 13.1453C60.7111 12.7894 61.0215 12.5165 61.4025 12.3275C61.7834 12.1386 62.1992 12.0438 62.6506 12.0438C63.384 12.0438 63.9906 12.2475 64.4702 12.6545C64.8817 13.0039 65.1528 13.4762 65.2841 14.0717C65.3185 14.2282 65.2023 14.3774 65.0466 14.3774V14.3774Z" fill="currentColor"/>
<path d="M70.8856 4.80846V22.4028C70.8856 22.824 71.2259 23.1657 71.6455 23.1657H72.8159C73.4148 23.1657 73.9012 23.6531 73.9012 24.2553V25.4294C73.9012 25.8507 74.2415 26.1923 74.6611 26.1923H76.9426C77.3622 26.1923 77.7026 25.8507 77.7026 25.4294V23.7938C77.7026 23.3726 77.3622 23.0309 76.9426 23.0309H75.1199C74.521 23.0309 74.0347 22.5435 74.0347 21.9414V5.26907C74.0347 4.66776 74.5201 4.17952 75.1199 4.17952H76.9418C77.3614 4.17952 77.7017 3.83783 77.7017 3.41659V1.78185C77.7017 1.36061 77.3614 1.01892 76.9418 1.01892H74.6603C74.2407 1.01892 73.9003 1.36061 73.9003 1.78185V2.95598C73.9003 3.55728 73.4149 4.04553 72.8151 4.04553H71.6447C71.2251 4.04553 70.8848 4.38721 70.8848 4.80846H70.8856Z" fill="currentColor"/>
<path d="M78.2153 8.68501V7.80623H81.0713L82.481 15.2759C82.6458 16.173 82.7739 17.0151 82.8472 18.1319H83.2499C83.3415 17.0151 83.5063 16.1364 83.6893 15.2759L85.1906 8.4287H88.7423L90.1887 15.2576C90.3717 16.118 90.5548 17.0151 90.6464 18.1319H91.0308C91.1041 17.0151 91.2505 16.1913 91.4153 15.2759L92.825 7.80623H95.6444V8.68501L93.1546 20.4387H88.8888L87.5889 14.3605C87.3875 13.4451 87.2411 12.6578 87.1312 11.5044H86.7468C86.6369 12.6761 86.4905 13.4451 86.2891 14.3605L84.9343 20.4387H80.7235L78.2153 8.68501ZM104.564 18.315H104.948V20.4387H103.777C102.898 20.4387 102.184 20.1092 101.983 19.029H101.726C101.25 20.0543 100.115 20.7683 98.5956 20.7683C96.9113 20.7683 95.5931 19.9078 95.5931 18.3333C95.5931 17.0517 96.4353 16.1547 97.9182 15.7519L101.214 14.8365C101.122 14.1042 100.609 13.7014 99.8955 13.7014C99.1814 13.7014 98.6322 14.1042 98.4491 14.8731H95.9959V14.1774C96.5268 12.6578 97.9182 11.6509 99.9687 11.6509C102.404 11.6509 103.978 13.0606 103.978 15.2026V17.6376C103.978 18.077 104.143 18.315 104.564 18.315ZM99.4195 18.9009C100.591 18.9009 101.232 17.9488 101.232 16.9968V16.594L99.3279 17.1433C98.6322 17.3447 98.321 17.6376 98.321 18.0953C98.321 18.6262 98.7421 18.9009 99.4195 18.9009ZM106.189 20.4387V7.80623H108.971V20.4387H106.189ZM110.909 20.4387V7.80623H113.691V20.4387H110.909ZM124.105 16.173V16.8137H117.752C117.935 18.0038 118.668 18.7361 119.748 18.7361C120.572 18.7361 121.194 18.2967 121.432 17.5461H123.885V18.2601C123.355 19.6149 121.945 20.7683 119.766 20.7683C117.002 20.7683 115.116 18.8459 115.116 16.2096C115.116 13.5549 117.002 11.6509 119.73 11.6509C122.256 11.6509 124.105 13.3169 124.105 16.173ZM119.711 13.5549C118.832 13.5549 118.137 14.1408 117.862 15.1294H121.487C121.267 14.1408 120.627 13.5549 119.711 13.5549ZM129.562 18.2418H131.155V20.4387H128.83C127.073 20.4387 126.139 19.6149 126.139 17.8573V14.1774H124.674V11.9804H126.139V9.05117H128.885V11.9804H131.045V14.1774H128.885V17.6193C128.885 18.0587 129.105 18.2418 129.562 18.2418Z" fill="currentColor"/>
<path d="M138.429 22.4028L138.429 4.8085C138.429 4.38725 138.089 4.04557 137.669 4.04557L136.499 4.04557C135.9 4.04557 135.413 3.55816 135.413 2.95602L135.413 1.78189C135.413 1.36065 135.073 1.01896 134.653 1.01896L132.372 1.01896C131.952 1.01896 131.612 1.36065 131.612 1.78189L131.612 3.41747C131.612 3.83871 131.952 4.1804 132.372 4.1804L134.195 4.1804C134.793 4.1804 135.28 4.66781 135.28 5.26994L135.28 21.9422C135.28 22.5435 134.794 23.0318 134.195 23.0318L132.373 23.0318C131.953 23.0318 131.613 23.3735 131.613 23.7947L131.613 25.4294C131.613 25.8507 131.953 26.1924 132.373 26.1924L134.654 26.1924C135.074 26.1924 135.414 25.8507 135.414 25.4295L135.414 24.2553C135.414 23.654 135.9 23.1658 136.499 23.1658L137.67 23.1658C138.089 23.1658 138.43 22.8241 138.43 22.4028L138.429 22.4028Z" fill="currentColor"/>
<path d="M104.723 28.7968L104.426 30.1837H104.512C104.678 29.9095 104.928 29.7724 105.263 29.7724C105.508 29.7724 105.703 29.8553 105.846 30.0211C105.99 30.1868 106.062 30.4068 106.062 30.681C106.062 30.9265 106.026 31.1481 105.956 31.3457C105.889 31.5434 105.797 31.7124 105.679 31.8526C105.561 31.9897 105.422 32.0949 105.263 32.1683C105.104 32.2416 104.935 32.2783 104.756 32.2783C104.651 32.2783 104.562 32.2671 104.488 32.2448C104.418 32.2225 104.359 32.1922 104.311 32.1539C104.267 32.1157 104.232 32.0726 104.206 32.0248C104.181 31.9738 104.163 31.9212 104.153 31.867H104.067L103.996 32.2113H103.398L104.115 28.7968H104.723ZM104.68 31.7044C104.794 31.7012 104.898 31.6773 104.99 31.6327C105.083 31.5848 105.163 31.5211 105.229 31.4414C105.296 31.3617 105.347 31.2708 105.382 31.1688C105.418 31.0636 105.435 30.952 105.435 30.834C105.435 30.6842 105.39 30.5662 105.301 30.4802C105.215 30.3909 105.097 30.3463 104.947 30.3463C104.836 30.3463 104.735 30.3686 104.646 30.4132C104.56 30.4578 104.485 30.52 104.421 30.5997C104.358 30.6762 104.308 30.7687 104.273 30.8771C104.241 30.9823 104.225 31.0955 104.225 31.2166C104.225 31.3696 104.265 31.4892 104.345 31.5753C104.424 31.6614 104.536 31.7044 104.68 31.7044ZM107.321 31.2166C107.314 31.2389 107.31 31.2628 107.306 31.2883C107.303 31.3138 107.302 31.3394 107.302 31.3649C107.302 31.486 107.337 31.5785 107.407 31.6422C107.477 31.7028 107.573 31.7331 107.694 31.7331C107.866 31.7331 107.998 31.6773 108.091 31.5657C108.183 31.4541 108.252 31.2931 108.296 31.0827L108.559 29.8393H109.162L108.535 32.7947C108.513 32.9031 108.46 32.9924 108.378 33.0625C108.295 33.1327 108.199 33.1677 108.091 33.1677H106.704V32.5939H107.847C107.933 32.5939 107.985 32.5461 108.005 32.4504L108.129 31.867H108.043C107.973 32.0105 107.883 32.1157 107.775 32.1826C107.667 32.2464 107.531 32.2783 107.369 32.2783C107.273 32.2783 107.184 32.2607 107.101 32.2257C107.018 32.1938 106.945 32.1475 106.881 32.087C106.817 32.0232 106.766 31.9467 106.728 31.8574C106.693 31.765 106.675 31.6598 106.675 31.5418C106.675 31.4621 106.685 31.3792 106.704 31.2931L106.89 30.4084L106.843 30.3749L106.556 30.5758L106.254 30.1263L106.603 29.8919C106.664 29.8505 106.726 29.8202 106.79 29.8011C106.854 29.782 106.917 29.7724 106.981 29.7724C107.051 29.7724 107.118 29.7851 107.182 29.8106C107.246 29.833 107.302 29.8664 107.349 29.9111C107.397 29.9525 107.436 30.0051 107.464 30.0689C107.493 30.1295 107.507 30.1996 107.507 30.2793C107.507 30.3239 107.502 30.3718 107.493 30.4228L107.321 31.2166Z" fill="currentColor" fill-opacity="0.6"/>
<path d="M113.358 30.5568C113.179 30.4828 112.961 30.4211 112.703 30.3717H112.698C112.447 30.3261 112.259 30.2843 112.134 30.2463C112.009 30.2084 111.91 30.1571 111.838 30.0925C111.766 30.028 111.731 29.9388 111.731 29.8248C111.731 29.6577 111.791 29.5305 111.913 29.4432C112.035 29.3559 112.195 29.3122 112.394 29.3122C112.611 29.3122 112.787 29.3691 112.922 29.4831C113.042 29.5854 113.116 29.7155 113.143 29.8729C113.149 29.9043 113.175 29.9275 113.205 29.9278L113.817 29.9326C113.854 29.9329 113.884 29.8997 113.881 29.8612C113.86 29.6505 113.793 29.4589 113.679 29.2865C113.552 29.0948 113.377 28.9457 113.154 28.8393C112.931 28.733 112.677 28.6798 112.394 28.6798C112.125 28.6798 111.883 28.7311 111.667 28.8337C111.452 28.9362 111.284 29.0786 111.164 29.2609C111.044 29.4432 110.985 29.6482 110.985 29.8761C110.985 30.1268 111.038 30.3281 111.145 30.4799C111.252 30.6318 111.392 30.7467 111.565 30.8245C111.738 30.9024 111.946 30.964 112.189 31.0097L112.217 31.0153C112.474 31.0647 112.667 31.1084 112.794 31.1464C112.921 31.1844 113.022 31.2375 113.095 31.3059C113.169 31.3742 113.206 31.4673 113.206 31.585C113.206 31.7522 113.14 31.8831 113.007 31.978C112.874 32.073 112.703 32.1204 112.493 32.1204C112.242 32.1204 112.04 32.0549 111.885 31.9239C111.744 31.8047 111.661 31.6516 111.637 31.4648C111.632 31.4325 111.606 31.408 111.575 31.4075L110.964 31.398C110.927 31.3975 110.897 31.4298 110.9 31.468C110.917 31.6977 110.987 31.9048 111.109 32.0891C111.243 32.2924 111.428 32.4519 111.664 32.5677C111.9 32.6836 112.171 32.7414 112.476 32.7414C112.76 32.7414 113.014 32.6883 113.239 32.5819C113.464 32.4756 113.64 32.3284 113.767 32.1404C113.894 31.9525 113.958 31.7408 113.958 31.5052C113.958 31.2546 113.902 31.0524 113.792 30.8985C113.681 30.7448 113.537 30.6308 113.358 30.5567L113.358 30.5568Z" fill="currentColor" fill-opacity="0.6"/>
<path d="M117.113 32.0919H117.018C116.963 32.0919 116.919 32.0767 116.888 32.0462C116.857 32.016 116.841 31.9665 116.841 31.8981V30.8101C116.841 30.4645 116.734 30.2015 116.521 30.0211C116.307 29.8409 116.055 29.7489 115.661 29.7489C115.289 29.7489 114.998 29.8323 114.77 29.9955C114.562 30.1444 114.436 30.3483 114.393 30.6075C114.387 30.6479 114.416 30.6848 114.456 30.6848H115.017C115.046 30.6848 115.071 30.6657 115.078 30.6377C115.104 30.5418 115.16 30.4635 115.248 30.4028C115.349 30.3326 115.469 30.2974 115.628 30.2974C115.927 30.2974 116.139 30.4873 116.139 30.7702V30.8587C116.139 30.8948 116.111 30.9241 116.076 30.9241H115.567C115.154 30.9241 114.841 31.0076 114.628 31.1747C114.414 31.3419 114.307 31.5792 114.307 31.8867C114.307 32.1526 114.405 32.3615 114.6 32.5133C114.747 32.6272 114.922 32.6929 115.102 32.7218C115.24 32.7438 115.381 32.7518 115.519 32.729C115.664 32.7051 115.781 32.6437 115.899 32.556C116.005 32.4774 116.093 32.3766 116.173 32.2537C116.212 32.1843 116.315 32.2122 116.315 32.2925V32.3891C116.315 32.5646 116.453 32.707 116.623 32.707H117.113C117.149 32.707 117.177 32.6777 117.177 32.6415V32.1572C117.177 32.121 117.149 32.0918 117.113 32.0918V32.0919ZM116.139 31.5051C116.139 31.6457 116.111 31.7681 116.054 31.8725C115.934 32.0914 115.72 32.2057 115.479 32.2057C115.339 32.2057 115.226 32.1716 115.142 32.1033C115.057 32.0349 115.015 31.9438 115.015 31.8298C115.015 31.7008 115.062 31.601 115.156 31.5308C115.249 31.4606 115.383 31.4254 115.556 31.4254H116.076C116.111 31.4254 116.139 31.4546 116.139 31.4908V31.5051V31.5051Z" fill="currentColor" fill-opacity="0.6"/>
<path d="M119.161 28.7212H118.43C118.044 28.7212 117.732 29.0434 117.732 29.4408V29.7569C117.732 29.7931 117.703 29.8224 117.668 29.8224H117.251C117.216 29.8224 117.188 29.8516 117.188 29.8878V30.3778C117.188 30.4139 117.216 30.4432 117.251 30.4432H117.668C117.703 30.4432 117.732 30.4725 117.732 30.5086V32.6416C117.732 32.6777 117.76 32.707 117.795 32.707H118.365C118.4 32.707 118.428 32.6777 118.428 32.6416V30.5086C118.428 30.4725 118.456 30.4432 118.491 30.4432H119.155C119.19 30.4432 119.218 30.4139 119.218 30.3778V29.8878C119.218 29.8516 119.19 29.8224 119.155 29.8224H118.491C118.456 29.8224 118.428 29.7931 118.428 29.7569V29.4728C118.428 29.4006 118.485 29.342 118.555 29.342H119.161C119.196 29.342 119.224 29.3128 119.224 29.2766V28.7866C119.224 28.7504 119.196 28.7212 119.161 28.7212H119.161Z" fill="currentColor" fill-opacity="0.6"/>
<path d="M121.95 30.4113C121.827 30.1987 121.658 30.0354 121.445 29.9214C121.231 29.8075 120.984 29.7489 120.704 29.7489C120.424 29.7489 120.183 29.8123 119.969 29.9356C119.755 30.0591 119.59 30.2337 119.472 30.4597C119.354 30.6857 119.295 30.9505 119.295 31.2544C119.295 31.5582 119.356 31.8117 119.477 32.0376C119.599 32.2636 119.773 32.4373 119.999 32.5589C120.226 32.6804 120.492 32.7412 120.798 32.7412C121.034 32.7412 121.245 32.6966 121.431 32.6073C121.617 32.5182 121.767 32.3956 121.881 32.24C121.979 32.1067 122.046 31.9607 122.081 31.8022C122.091 31.7611 122.06 31.7216 122.02 31.7216H121.447C121.42 31.7216 121.396 31.7399 121.387 31.7666C121.347 31.8894 121.276 31.9865 121.174 32.0576C121.06 32.1374 120.918 32.1773 120.748 32.1773C120.608 32.1773 120.486 32.1469 120.381 32.0861C120.276 32.0254 120.193 31.9399 120.132 31.8298C120.108 31.7863 120.089 31.7403 120.073 31.693C120.056 31.6422 120.044 31.5897 120.036 31.5367C120.033 31.5181 120.03 31.4994 120.028 31.4806C120.024 31.442 120.053 31.4082 120.091 31.4082H122.064C122.096 31.4082 122.123 31.3838 122.127 31.3509C122.13 31.3269 122.132 31.3024 122.132 31.2772C122.134 31.2317 122.135 31.1899 122.135 31.1519C122.135 30.871 122.074 30.6241 121.95 30.4114L121.95 30.4113ZM121.357 30.9125H120.122C120.081 30.9125 120.051 30.8738 120.06 30.833C120.08 30.7437 120.114 30.663 120.162 30.5907C120.225 30.4977 120.306 30.4265 120.406 30.3771C120.505 30.3277 120.614 30.303 120.732 30.303C120.923 30.303 121.082 30.3562 121.207 30.4625C121.314 30.5538 121.385 30.6771 121.42 30.8327C121.428 30.8736 121.398 30.9125 121.357 30.9125V30.9125Z" fill="currentColor" fill-opacity="0.6"/>
<path d="M122.867 28.4134V33.0092C122.867 33.1193 122.956 33.2085 123.066 33.2085H123.372C123.528 33.2085 123.655 33.3358 123.655 33.4931V33.7998C123.655 33.9098 123.744 33.9991 123.854 33.9991H124.45C124.559 33.9991 124.648 33.9098 124.648 33.7998V33.3726C124.648 33.2625 124.559 33.1733 124.45 33.1733H123.973C123.817 33.1733 123.69 33.046 123.69 32.8887V28.5338C123.69 28.3767 123.817 28.2492 123.973 28.2492H124.449C124.559 28.2492 124.648 28.1599 124.648 28.0499V27.6229C124.648 27.5128 124.559 27.4236 124.449 27.4236H123.853C123.744 27.4236 123.655 27.5128 123.655 27.6229V27.9296C123.655 28.0866 123.528 28.2142 123.371 28.2142H123.066C122.956 28.2142 122.867 28.3034 122.867 28.4134H122.867Z" fill="currentColor" fill-opacity="0.6"/>
<path d="M124.863 32.1539L125.562 28.8638H126.193L125.609 31.6087H127.063V32.2113H124.863V32.1539ZM130.01 31.6422L130.058 31.6757L130.288 31.5131L130.589 31.9626L130.307 32.1539C130.183 32.2368 130.052 32.2783 129.915 32.2783C129.794 32.2783 129.685 32.2448 129.59 32.1778C129.494 32.1109 129.433 32.0168 129.408 31.8957H129.322C129.293 31.9499 129.26 32.0009 129.221 32.0487C129.183 32.0933 129.135 32.1332 129.078 32.1683C129.024 32.2001 128.958 32.2257 128.882 32.2448C128.809 32.2671 128.721 32.2783 128.619 32.2783C128.495 32.2783 128.38 32.2543 128.275 32.2065C128.169 32.1555 128.077 32.087 127.997 32.0009C127.921 31.9116 127.86 31.808 127.815 31.69C127.771 31.5721 127.748 31.443 127.748 31.3027C127.748 31.0891 127.777 30.8898 127.835 30.7049C127.892 30.52 127.975 30.359 128.083 30.2219C128.192 30.0816 128.324 29.9716 128.48 29.8919C128.64 29.8122 128.818 29.7724 129.016 29.7724C129.191 29.7724 129.33 29.8075 129.432 29.8776C129.534 29.9477 129.602 30.0402 129.637 30.155H129.724L129.79 29.8393H130.393L130.01 31.6422ZM128.853 31.7044C128.968 31.7044 129.07 31.6821 129.159 31.6374C129.248 31.5896 129.322 31.5275 129.379 31.4509C129.44 31.3744 129.486 31.2852 129.518 31.1831C129.55 31.0779 129.566 30.9679 129.566 30.8532C129.566 30.7033 129.523 30.5822 129.437 30.4897C129.351 30.3941 129.236 30.3463 129.092 30.3463C128.978 30.3463 128.875 30.3702 128.786 30.418C128.697 30.4626 128.622 30.5232 128.561 30.5997C128.501 30.6762 128.455 30.7671 128.423 30.8723C128.391 30.9743 128.375 31.0827 128.375 31.1975C128.375 31.3314 128.413 31.4493 128.49 31.5514C128.569 31.6534 128.691 31.7044 128.853 31.7044ZM132.068 28.7968L131.772 30.1837H131.858C132.024 29.9095 132.274 29.7724 132.609 29.7724C132.854 29.7724 133.049 29.8553 133.192 30.0211C133.336 30.1868 133.407 30.4068 133.407 30.681C133.407 30.9265 133.372 31.1481 133.302 31.3457C133.235 31.5434 133.143 31.7124 133.025 31.8526C132.907 31.9897 132.768 32.0949 132.609 32.1683C132.449 32.2416 132.28 32.2783 132.102 32.2783C131.997 32.2783 131.907 32.2671 131.834 32.2448C131.764 32.2225 131.705 32.1922 131.657 32.1539C131.612 32.1157 131.577 32.0726 131.552 32.0248C131.526 31.9738 131.509 31.9212 131.499 31.867H131.413L131.341 32.2113H130.744L131.461 28.7968H132.068ZM132.025 31.7044C132.14 31.7012 132.244 31.6773 132.336 31.6327C132.429 31.5848 132.508 31.5211 132.575 31.4414C132.642 31.3617 132.693 31.2708 132.728 31.1688C132.763 31.0636 132.781 30.952 132.781 30.834C132.781 30.6842 132.736 30.5662 132.647 30.4802C132.561 30.3909 132.443 30.3463 132.293 30.3463C132.181 30.3463 132.081 30.3686 131.992 30.4132C131.906 30.4578 131.831 30.52 131.767 30.5997C131.703 30.6762 131.654 30.7687 131.619 30.8771C131.587 30.9823 131.571 31.0955 131.571 31.2166C131.571 31.3696 131.611 31.4892 131.69 31.5753C131.77 31.6614 131.882 31.7044 132.025 31.7044ZM135.116 30.3176C135.081 30.3176 135.044 30.3223 135.006 30.3319C134.971 30.3383 134.937 30.3494 134.906 30.3654C134.874 30.3813 134.847 30.4036 134.824 30.4323C134.805 30.4578 134.796 30.4897 134.796 30.528C134.796 30.5949 134.834 30.6443 134.91 30.6762C134.987 30.7081 135.118 30.7352 135.302 30.7575C135.51 30.783 135.677 30.8468 135.805 30.9488C135.932 31.0476 135.996 31.1911 135.996 31.3792C135.996 31.6598 135.897 31.8797 135.699 32.0391C135.505 32.1986 135.234 32.2783 134.886 32.2783C134.711 32.2783 134.56 32.2527 134.432 32.2017C134.308 32.1507 134.204 32.087 134.121 32.0105C134.042 31.9339 133.981 31.8495 133.94 31.757C133.898 31.6645 133.876 31.5769 133.873 31.494L134.466 31.3505C134.475 31.4557 134.52 31.5466 134.599 31.6231C134.679 31.6964 134.8 31.7331 134.963 31.7331C135.075 31.7331 135.172 31.7156 135.255 31.6805C135.338 31.6454 135.379 31.5832 135.379 31.494C135.379 31.427 135.347 31.3744 135.283 31.3362C135.22 31.2947 135.102 31.266 134.929 31.2501C134.7 31.231 134.517 31.1656 134.38 31.054C134.246 30.9424 134.179 30.7942 134.179 30.6093C134.179 30.4754 134.206 30.3558 134.26 30.2506C134.317 30.1454 134.392 30.0577 134.485 29.9876C134.577 29.9174 134.684 29.8648 134.805 29.8298C134.929 29.7915 135.059 29.7724 135.192 29.7724C135.358 29.7724 135.497 29.7947 135.609 29.8393C135.72 29.884 135.811 29.9398 135.881 30.0067C135.951 30.0737 136.002 30.147 136.034 30.2267C136.069 30.3032 136.092 30.3749 136.101 30.4419L135.518 30.5949C135.505 30.5088 135.465 30.4419 135.398 30.3941C135.331 30.3431 135.237 30.3176 135.116 30.3176Z" fill="currentColor" fill-opacity="0.6"/>
<path d="M138.428 33.0092L138.428 28.4134C138.428 28.3033 138.34 28.2141 138.23 28.2141L137.924 28.2141C137.768 28.2141 137.641 28.0868 137.641 27.9295L137.641 27.6228C137.641 27.5128 137.552 27.4235 137.442 27.4235L136.846 27.4235C136.737 27.4235 136.648 27.5128 136.648 27.6228L136.648 28.05C136.648 28.1601 136.737 28.2493 136.846 28.2493L137.322 28.2493C137.479 28.2493 137.606 28.3766 137.606 28.5339L137.606 32.8889C137.606 33.0459 137.479 33.1734 137.322 33.1734L136.847 33.1734C136.737 33.1734 136.648 33.2627 136.648 33.3727L136.648 33.7997C136.648 33.9098 136.737 33.999 136.847 33.999L137.443 33.999C137.552 33.999 137.641 33.9098 137.641 33.7997L137.641 33.493C137.641 33.336 137.768 33.2084 137.924 33.2084L138.23 33.2084C138.34 33.2084 138.429 33.1192 138.429 33.0092L138.428 33.0092Z" fill="currentColor" fill-opacity="0.6"/>
</g>
<defs>
<filter id="filter0_d_14760_8283" x="0.000108153" y="5.0238" width="18.5716" height="18.022" filterUnits="userSpaceOnUse" color-interpolation-filters="sRGB">
<feFlood flood-opacity="0" result="BackgroundImageFix"/>
<feColorMatrix in="SourceAlpha" type="matrix" values="0 0 0 0 0 0 0 0 0 0 0 0 0 0 0 0 0 0 127 0" result="hardAlpha"/>
<feOffset dy="0.429091"/>
<feGaussianBlur stdDeviation="0.214546"/>
<feComposite in2="hardAlpha" operator="out"/>
<feColorMatrix type="matrix" values="0 0 0 0 0 0 0 0 0 0 0 0 0 0 0 0 0 0 0.06 0"/>
<feBlend mode="normal" in2="BackgroundImageFix" result="effect1_dropShadow_14760_8283"/>
<feBlend mode="normal" in="SourceGraphic" in2="effect1_dropShadow_14760_8283" result="shape"/>
</filter>
</defs>
</svg>
